<?xml version="1.0" standalone="no"?>
<!DOCTYPE svg PUBLIC "-//W3C//DTD SVG 20010904//EN"
 "http://www.w3.org/TR/2001/REC-SVG-20010904/DTD/svg10.dtd">
<svg version="1.0" xmlns="http://www.w3.org/2000/svg"
 width="310.000000pt" height="310.000000pt" viewBox="0 0 310.000000 310.000000"
 preserveAspectRatio="xMidYMid meet">
<metadata>
Created by potrace 1.11, written by Peter Selinger 2001-2013
</metadata>
<g transform="translate(0.000000,310.000000) scale(0.100000,-0.100000)"
fill="#000000" stroke="none">
<path d="M1733 2921 c-13 -11 -23 -24 -23 -31 0 -6 -4 -8 -10 -5 -5 3 -10 1
-10 -5 0 -6 -5 -8 -10 -5 -6 4 -9 3 -8 -2 2 -4 -1 -9 -6 -10 -5 -1 -14 -12
-21 -25 -6 -13 -17 -22 -23 -20 -7 1 -11 -1 -10 -5 2 -5 -21 -32 -50 -62 -28
-29 -52 -58 -52 -63 0 -5 -4 -6 -10 -3 -5 3 -10 2 -10 -4 0 -5 -24 -34 -54
-65 -29 -31 -51 -56 -47 -56 3 -1 -5 -10 -18 -20 -13 -11 -20 -20 -17 -20 3 0
-11 -16 -31 -35 -20 -19 -34 -35 -31 -35 4 0 -9 -18 -29 -39 -19 -22 -35 -43
-36 -48 0 -4 -11 -16 -24 -26 -13 -10 -23 -25 -23 -33 0 -8 -3 -14 -7 -14 -5
0 -19 -17 -33 -38 -14 -20 -29 -40 -35 -44 -5 -4 -10 -13 -10 -20 -1 -7 -6
-12 -13 -11 -7 2 -11 0 -10 -5 3 -12 -25 -62 -34 -62 -5 0 -7 -4 -3 -10 3 -5
1 -17 -4 -27 -29 -55 -50 -103 -45 -103 4 0 0 -8 -7 -17 -12 -15 -12 -16 1 -8
12 7 12 5 -1 -11 -9 -10 -14 -25 -12 -31 3 -7 1 -13 -5 -13 -5 0 -8 -13 -7
-30 1 -16 -3 -30 -8 -30 -5 0 -4 -6 2 -14 9 -11 8 -15 -5 -20 -11 -4 -13 -10
-6 -19 5 -6 9 -23 8 -37 -1 -14 2 -31 7 -37 6 -8 6 -13 -1 -13 -12 0 -4 -38
12 -59 9 -12 8 -13 -4 -6 -13 8 -13 6 -2 -8 8 -9 11 -21 8 -26 -4 -5 -2 -12 4
-16 6 -4 8 -11 5 -16 -4 -5 -1 -9 4 -9 6 0 11 -9 11 -19 0 -11 7 -27 16 -35 8
-9 13 -20 10 -24 -3 -5 4 -15 15 -22 10 -8 19 -19 19 -25 0 -6 9 -16 20 -23
12 -7 18 -17 15 -22 -3 -6 -1 -10 4 -10 6 0 24 -13 39 -30 16 -16 32 -30 36
-30 4 0 16 -9 28 -20 12 -10 24 -17 28 -15 4 3 18 -4 30 -15 13 -11 27 -21 32
-21 9 -2 25 -5 36 -9 4 -1 10 -2 15 -1 4 0 7 -3 7 -7 0 -7 18 -11 63 -13 9 0
17 -3 17 -7 0 -4 39 -6 88 -4 123 5 132 6 132 13 0 4 7 10 16 13 10 4 13 2 8
-7 -5 -8 -2 -7 9 2 9 7 17 10 17 7 0 -4 7 0 16 8 8 9 20 14 25 11 5 -4 9 -1 9
6 0 7 3 10 6 6 7 -7 88 45 117 75 10 10 23 16 28 12 5 -3 8 -2 7 3 -4 14 26
53 42 53 12 0 13 2 1 9 -11 7 -9 10 8 16 11 3 21 13 21 21 0 8 9 23 20 34 12
12 18 25 15 29 -2 5 2 12 11 15 9 4 14 13 10 21 -3 8 -2 15 3 15 7 0 9 7 13
50 1 11 6 20 11 20 5 0 7 6 4 13 -2 6 0 20 5 31 8 14 7 17 -3 11 -8 -6 -10 -4
-3 6 10 16 13 69 4 69 -4 0 -7 8 -7 18 1 55 -4 73 -15 66 -9 -5 -9 -2 1 9 11
15 11 17 -1 17 -8 0 -15 6 -16 13 -2 30 -12 59 -26 73 -9 8 -16 19 -16 24 0 5
-11 21 -25 35 -14 14 -21 25 -14 25 7 0 2 8 -9 19 -12 10 -22 26 -22 35 0 10
-4 14 -10 11 -5 -3 -10 1 -10 9 0 9 -5 16 -11 16 -5 0 -7 5 -4 10 3 6 -1 10
-9 10 -9 0 -16 9 -16 20 0 11 -5 20 -11 20 -5 0 -8 4 -5 9 3 5 -1 11 -9 15 -8
3 -15 15 -15 26 0 11 -4 20 -10 20 -5 0 -10 7 -10 15 0 8 -5 15 -11 15 -5 0
-8 4 -4 9 3 5 -1 16 -9 24 -8 8 -12 17 -9 21 4 3 1 6 -5 6 -7 0 -11 3 -11 8 4
17 -14 72 -23 72 -6 0 -7 7 -4 15 3 9 -1 18 -10 22 -13 5 -13 7 -2 14 10 7 10
9 1 9 -7 0 -13 5 -13 11 0 5 6 7 13 4 6 -4 4 0 -5 8 -10 8 -15 17 -11 21 4 4
1 11 -7 16 -8 6 -10 10 -5 10 6 0 11 9 11 20 0 11 -4 20 -8 20 -4 0 -3 11 2
25 6 15 6 26 0 30 -6 4 -6 14 1 27 9 16 8 19 -3 12 -8 -5 -6 3 6 20 10 16 14
26 8 22 -5 -3 -12 1 -16 9 -3 8 0 14 6 12 9 -2 17 18 20 51 1 6 5 12 10 12 5
0 7 4 3 9 -7 12 15 61 28 61 6 0 7 3 4 6 -3 4 -2 15 4 25 12 23 10 23 -18 0z"/>
<path d="M485 1786 c-14 -15 -16 -56 -3 -56 7 0 6 -5 -2 -15 -6 -8 -8 -20 -4
-27 5 -7 10 -35 12 -63 4 -64 9 -78 24 -69 10 6 10 4 0 -8 -10 -13 -11 -22 -2
-37 6 -12 7 -21 3 -21 -4 0 -2 -5 5 -12 7 -7 12 -20 12 -30 0 -10 5 -18 10
-18 6 0 10 -5 10 -11 0 -5 -6 -7 -12 -3 -7 4 -5 -1 4 -12 9 -10 17 -23 18 -29
1 -5 6 -9 11 -8 4 2 6 -4 3 -12 -4 -8 -1 -15 5 -15 6 0 8 -7 5 -15 -4 -8 -1
-15 7 -15 7 0 9 -3 6 -7 -4 -3 -1 -13 7 -22 8 -9 16 -23 18 -31 2 -8 12 -22
23 -32 11 -9 16 -17 12 -18 -4 0 3 -12 17 -27 14 -15 22 -31 19 -37 -3 -6 -3
-8 2 -4 4 4 22 -11 41 -33 18 -22 52 -56 76 -76 24 -19 44 -39 46 -44 2 -5 10
-9 18 -9 8 0 17 -7 20 -15 4 -8 10 -12 15 -9 5 3 9 1 9 -4 0 -5 12 -15 28 -23
15 -8 33 -20 40 -27 8 -7 18 -10 23 -7 5 4 9 3 9 -2 0 -4 14 -14 30 -21 17 -6
43 -17 58 -24 23 -9 27 -16 25 -42 -8 -85 -2 -601 7 -604 6 -2 7 -8 4 -14 -4
-6 3 -5 15 2 18 9 26 9 39 -2 9 -7 13 -8 9 -1 -8 13 70 13 92 -1 9 -6 12 -5 8
1 -5 7 6 11 28 11 20 0 35 -5 35 -11 0 -7 7 -4 14 5 7 10 16 14 20 11 4 -4 3
5 -3 20 -6 15 -7 27 -3 27 4 0 8 9 8 20 0 11 -3 20 -7 20 -10 0 -5 34 6 42 6
5 5 8 -4 8 -11 0 -11 3 0 17 12 14 12 15 1 9 -11 -7 -12 -4 -3 11 7 14 7 23
-1 31 -8 8 -8 12 -2 12 6 0 11 7 11 15 0 8 -4 15 -8 15 -10 0 -6 34 6 42 6 5
5 8 -3 8 -8 0 -10 5 -6 12 10 15 12 58 3 58 -10 0 -5 34 6 42 6 5 5 8 -3 8 -8
0 -10 5 -6 12 9 15 9 71 0 86 -4 7 -2 12 6 12 10 0 10 2 -1 9 -8 5 -9 11 -3
15 6 3 7 19 2 40 -5 22 -4 38 3 45 8 8 7 11 -2 11 -11 0 -11 3 -1 15 10 12 10
15 0 15 -9 0 -9 4 1 17 10 11 10 14 2 9 -16 -9 -17 6 -1 22 9 9 9 12 -2 12
-13 0 -13 2 0 10 11 7 11 10 2 10 -10 0 -10 5 -2 20 6 11 7 20 2 20 -5 0 -7
11 -5 24 3 13 -1 27 -8 31 -7 5 -10 4 -5 -3 4 -7 -1 -10 -14 -9 -11 1 -20 5
-20 9 0 4 -12 8 -27 8 -16 0 -41 7 -57 15 -15 8 -32 12 -37 9 -5 -3 -9 0 -9 5
0 6 -9 11 -20 11 -11 0 -23 7 -26 15 -4 8 -10 13 -14 10 -4 -3 -19 4 -33 15
-14 11 -30 20 -36 20 -6 0 -20 9 -31 20 -11 11 -20 18 -20 15 0 -3 -13 8 -29
24 -16 16 -32 27 -35 24 -3 -4 -6 -2 -6 4 0 6 -16 27 -35 47 -19 20 -42 50
-51 66 -10 16 -22 26 -27 23 -6 -3 -7 -1 -3 5 3 6 2 13 -4 17 -6 4 -8 11 -5
16 4 5 2 9 -2 9 -5 0 -14 9 -21 21 -9 13 -9 18 -2 14 7 -4 7 1 -2 14 -7 12
-15 21 -19 21 -3 0 -6 7 -7 15 -1 8 -3 22 -4 30 -1 8 -5 15 -10 15 -4 0 -8 14
-8 30 0 17 -4 30 -9 30 -5 0 -9 15 -10 33 -1 17 -3 53 -4 79 -1 27 -6 48 -11
48 -4 0 -6 7 -2 15 4 13 2 13 -14 5 -23 -12 -33 -13 -26 -1 4 5 -10 5 -32 0
-21 -4 -41 -4 -46 1 -5 5 -18 5 -31 0 -24 -9 -64 -8 -80 2 -6 3 -15 1 -20 -6z"/>
<path d="M2311 1794 c-1 -6 -12 -10 -25 -9 -21 3 -24 0 -21 -26 3 -21 1 -28
-8 -23 -9 5 -9 4 -1 -5 12 -13 7 -64 -5 -56 -4 2 -5 -9 -3 -26 3 -19 0 -29 -9
-29 -9 0 -10 -3 -2 -11 8 -8 7 -18 -3 -37 -7 -14 -11 -29 -8 -34 3 -4 0 -8 -5
-8 -6 0 -11 -6 -11 -14 0 -8 -6 -27 -14 -43 -8 -15 -20 -40 -27 -55 -6 -15
-16 -25 -21 -22 -7 5 -12 -20 -5 -29 5 -8 -26 -36 -34 -31 -5 3 -9 -4 -9 -16
0 -12 -4 -18 -10 -15 -5 3 -10 2 -10 -3 0 -11 -100 -115 -100 -104 0 4 -5 -1
-11 -11 -6 -9 -14 -15 -20 -12 -5 4 -12 -1 -15 -10 -6 -14 -63 -45 -81 -44 -3
1 -9 -3 -12 -8 -10 -13 -49 -33 -66 -33 -8 0 -15 -4 -15 -10 0 -5 -6 -7 -14
-4 -8 3 -17 0 -21 -6 -5 -8 -11 -8 -21 1 -12 9 -13 9 -9 -3 4 -11 -1 -14 -17
-13 -13 1 -26 -2 -29 -8 -4 -5 -14 -5 -28 2 -18 10 -20 9 -14 -5 5 -12 3 -15
-6 -9 -10 6 -11 3 -2 -12 7 -14 7 -23 -1 -31 -8 -8 -8 -12 -2 -12 12 0 12 -39
1 -57 -5 -7 -4 -13 1 -13 10 0 9 -56 -1 -66 -3 -4 -2 -15 4 -25 7 -14 6 -19
-2 -19 -9 0 -9 -3 0 -14 8 -10 9 -16 1 -21 -7 -4 -7 -12 0 -26 8 -14 7 -19 -1
-19 -9 0 -9 -3 0 -14 8 -10 9 -16 1 -21 -7 -4 -7 -12 0 -26 8 -14 7 -19 -1
-19 -9 0 -9 -3 0 -14 8 -10 9 -16 1 -21 -7 -4 -7 -12 0 -26 6 -10 7 -19 2 -19
-5 0 -9 -7 -9 -15 0 -8 3 -15 7 -15 8 0 6 -32 -3 -47 -4 -6 -3 -14 3 -18 7 -4
7 -12 0 -25 -6 -10 -6 -21 -2 -24 10 -6 9 -36 -1 -53 -4 -6 -3 -14 3 -18 7 -4
7 -12 0 -25 -7 -13 -7 -21 0 -25 6 -4 7 -13 1 -23 -6 -11 -6 -24 0 -35 7 -11
7 -17 0 -17 -6 0 -8 -6 -5 -14 4 -9 21 -12 60 -10 41 2 53 0 47 -9 -4 -7 -1
-7 10 2 9 7 23 11 31 8 7 -3 19 0 26 6 10 9 11 9 6 0 -9 -16 10 -17 19 -3 5 8
11 7 21 -1 8 -6 17 -9 21 -6 3 4 12 2 20 -4 7 -6 14 -9 14 -5 5 23 4 32 -4 44
-5 6 -5 12 -1 12 11 0 10 82 0 98 -4 7 -4 12 1 12 9 0 8 103 -1 119 -4 6 -4
11 1 11 10 0 9 82 -1 98 -4 7 -4 12 1 12 9 0 8 103 -1 119 -4 6 -4 11 1 11 9
0 9 87 0 96 -9 10 21 36 33 29 6 -3 13 1 16 9 3 9 11 13 16 10 6 -4 13 -3 17
2 6 10 52 32 62 30 3 0 13 6 21 15 9 9 39 30 67 48 28 18 51 37 51 42 0 5 5 9
11 9 6 0 39 28 73 62 33 34 54 58 46 53 -8 -4 0 5 17 22 18 16 30 33 26 36 -3
4 -1 7 5 7 6 0 19 14 28 32 9 18 23 38 30 46 8 7 12 17 9 22 -3 4 2 10 10 14
8 3 15 14 15 25 0 11 6 26 13 33 6 7 14 22 15 33 2 11 8 23 14 26 5 3 9 9 9
13 -1 3 -1 7 0 9 4 12 10 44 11 55 1 6 6 12 12 12 6 0 4 5 -4 10 -8 5 -10 10
-4 10 7 0 14 10 17 23 2 12 8 31 12 41 6 14 5 17 -3 12 -7 -4 -12 -2 -12 3 0
6 4 11 9 11 5 0 12 7 15 16 4 10 2 13 -7 7 -6 -4 -4 6 7 21 10 16 13 25 7 22
-6 -4 -11 0 -11 8 0 9 5 16 11 16 8 0 8 4 0 14 -7 8 -8 17 -3 20 5 3 7 19 4
37 -3 22 -7 27 -13 18 -7 -11 -9 -11 -9 1 0 13 -1 13 -10 0 -6 -9 -10 -11 -10
-3 0 7 -7 10 -15 7 -22 -9 -105 -10 -105 -2 0 4 -11 3 -24 -2 -17 -6 -26 -5
-30 3 -3 8 -5 8 -5 1z"/>
</g>
</svg>
